<svg width="778" height="800" viewBox="0 0 778 800" fill="none" xmlns="http://www.w3.org/2000/svg">
    <path fill-rule="evenodd" clip-rule="evenodd"
        d="M671.334 400C671.334 237.996 540.004 106.667 378.001 106.667V0C405.615 0 432.576 2.79822 458.615 8.12658C640.888 45.4251 778.001 206.7 778.001 400C778.001 620.914 598.915 800 378.001 800C203.838 800 55.6732 688.692 0.761719 533.333H116.652C165.204 628.311 264.009 693.333 378.001 693.333C540.004 693.333 671.334 562.004 671.334 400ZM24.1371 213.333C91.2034 340.208 224.506 426.667 378.001 426.667V320C246.54 320 135.276 233.521 97.9967 114.347C68.5627 143.203 43.5695 176.571 24.1371 213.333ZM143.117 76.1913C165.939 184.978 262.431 266.667 378.001 266.667C451.639 266.667 511.335 326.362 511.335 400C511.335 473.638 451.639 533.333 378.001 533.333H178.416C221.47 597.653 294.79 640 378.001 640C510.55 640 618.001 532.548 618.001 400C618.001 267.452 510.55 160 378.001 160C304.363 160 244.668 100.305 244.668 26.6667V22.7608C208.082 35.6921 173.939 53.7951 143.117 76.1913Z"
        fill="#C99383" />
</svg>