<svg width="340" height="186" viewBox="0 0 340 186" fill="none" xmlns="http://www.w3.org/2000/svg">
<path d="M85.9885 122.205L169.997 69L254.006 122.205L169.997 175.411L85.9885 122.205Z" fill="url(#paint0_linear_1528_4204)"/>
<path d="M85.9879 121.805L169.997 175.317V185.487L85.9879 131.976V121.805Z" fill="#2451F1"/>
<path d="M254.005 121.805L169.996 175.317V185.487L254.005 131.976V121.805Z" fill="#F6E1FF"/>
<path d="M96.9938 112.782L169.997 66.5469L242.999 112.782L169.997 159.017L96.9938 112.782Z" fill="url(#paint1_linear_1528_4204)"/>
<path d="M96.9938 112.434L169.997 158.935V167.773L96.9938 121.272V112.434Z" fill="#2451F1"/>
<path d="M243 112.434L169.997 158.935V167.773L243 121.272V112.434Z" fill="#F6E1FF"/>
<path d="M232 53L218 62.2029V122L232 112.797V53Z" fill="#C2D3FF"/>
<path d="M204 53L218 62.203V122L204 112.797V53Z" fill="#2451F1"/>
<path d="M209 67L195 76.2029V136L209 126.797V67Z" fill="#C2D3FF"/>
<path d="M181 67L195 76.203V136L181 126.797V67Z" fill="#2451F1"/>
<path d="M136 53L122 62.2029V122L136 112.797V53Z" fill="#85A1FF"/>
<path d="M108 53L122 62.203V122L108 112.797V53Z" fill="#2451F1"/>
<path d="M160 67L146 76.2029V136L160 126.797V67Z" fill="#85A1FF"/>
<path d="M132 67L146 76.203V136L132 126.797V67Z" fill="#2451F1"/>
<path d="M184 82L170 91.2029V151L184 141.797V82Z" fill="#C2D3FF"/>
<path d="M156 82L170 91.203V151L156 141.797V82Z" fill="#2451F1"/>
<path d="M85.9885 53.2055L169.997 0L254.006 53.2054L169.997 106.411L85.9885 53.2055Z" fill="url(#paint2_linear_1528_4204)"/>
<path d="M85.9879 52.8054L169.997 106.317V116.487L85.9879 62.9759V52.8054Z" fill="#2451F1"/>
<path d="M254.005 52.8054L169.996 106.317V116.487L254.005 62.9758V52.8054Z" fill="#F6E1FF"/>
<path d="M99.0895 44.9077L169.996 0L240.903 44.9077L169.996 89.8153L99.0895 44.9077Z" fill="url(#paint3_linear_1528_4204)"/>
<path d="M99.0895 44.5698L169.996 89.7357V98.32L99.0895 53.1541V44.5698Z" fill="#2451F1"/>
<path d="M240.904 44.5698L169.997 89.7357V98.3199L240.904 53.1541V44.5698Z" fill="#F6E1FF"/>
<path d="M110.799 37.6933L169.999 0.199951L229.199 37.6933L169.999 75.1866L110.799 37.6933Z" fill="url(#paint4_linear_1528_4204)"/>
<path d="M110.798 37.4114L169.998 75.1203V82.2873L110.798 44.5784V37.4114Z" fill="#2451F1"/>
<path d="M229.199 37.4114L169.999 75.1203V82.2872L229.199 44.5784V37.4114Z" fill="#F6E1FF"/>
<defs>
<linearGradient id="paint0_linear_1528_4204" x1="206.4" y1="134.558" x2="165.99" y2="45.3481" gradientUnits="userSpaceOnUse">
<stop stop-color="#6E8EFF"/>
<stop offset="1" stop-color="#C2DAFF"/>
</linearGradient>
<linearGradient id="paint1_linear_1528_4204" x1="201.63" y1="123.516" x2="166.514" y2="45.9936" gradientUnits="userSpaceOnUse">
<stop stop-color="#6E8EFF"/>
<stop offset="1" stop-color="#C2DAFF"/>
</linearGradient>
<linearGradient id="paint2_linear_1528_4204" x1="206.4" y1="65.5575" x2="165.99" y2="-23.6519" gradientUnits="userSpaceOnUse">
<stop stop-color="#6E8EFF"/>
<stop offset="1" stop-color="#C2DAFF"/>
</linearGradient>
<linearGradient id="paint3_linear_1528_4204" x1="200.722" y1="55.3333" x2="166.614" y2="-19.9632" gradientUnits="userSpaceOnUse">
<stop stop-color="#6E8EFF"/>
<stop offset="1" stop-color="#C2DAFF"/>
</linearGradient>
<linearGradient id="paint4_linear_1528_4204" x1="195.651" y1="46.3977" x2="167.175" y2="-16.4673" gradientUnits="userSpaceOnUse">
<stop stop-color="#6E8EFF"/>
<stop offset="1" stop-color="#C2DAFF"/>
</linearGradient>
</defs>
</svg>
