<svg width="800" height="400" viewBox="0 0 800 400" fill="none" xmlns="http://www.w3.org/2000/svg">
<g clip-path="url(#clip0_4923_13006)">
<path fill-rule="evenodd" clip-rule="evenodd" d="M640 290C623.431 290 610 303.431 610 320C610 336.569 623.431 350 640 350C656.569 350 670 336.569 670 320C670 303.431 656.569 290 640 290ZM590 320C590 292.386 612.386 270 640 270C667.614 270 690 292.386 690 320C690 347.614 667.614 370 640 370C612.386 370 590 347.614 590 320Z" fill="#031329"/>
<path fill-rule="evenodd" clip-rule="evenodd" d="M640 260C606.863 260 580 286.863 580 320C580 353.137 606.863 380 640 380C673.137 380 700 353.137 700 320C700 286.863 673.137 260 640 260ZM560 320C560 275.817 595.817 240 640 240C684.183 240 720 275.817 720 320C720 364.183 684.183 400 640 400C595.817 400 560 364.183 560 320Z" fill="#031329"/>
</g>
<g clip-path="url(#clip1_4923_13006)">
<path fill-rule="evenodd" clip-rule="evenodd" d="M480 370C463.431 370 450 383.431 450 400C450 416.569 463.431 430 480 430C496.569 430 510 416.569 510 400C510 383.431 496.569 370 480 370ZM430 400C430 372.386 452.386 350 480 350C507.614 350 530 372.386 530 400C530 427.614 507.614 450 480 450C452.386 450 430 427.614 430 400Z" fill="#031329"/>
<path fill-rule="evenodd" clip-rule="evenodd" d="M480 340C446.863 340 420 366.863 420 400C420 433.137 446.863 460 480 460C513.137 460 540 433.137 540 400C540 366.863 513.137 340 480 340ZM400 400C400 355.817 435.817 320 480 320C524.183 320 560 355.817 560 400C560 444.183 524.183 480 480 480C435.817 480 400 444.183 400 400Z" fill="#031329"/>
</g>
<g clip-path="url(#clip2_4923_13006)">
<path fill-rule="evenodd" clip-rule="evenodd" d="M590 80C590 63.4315 576.569 50 560 50C543.431 50 530 63.4315 530 80C530 96.5685 543.431 110 560 110C576.569 110 590 96.5685 590 80ZM560 30C587.614 30 610 52.3858 610 80C610 107.614 587.614 130 560 130C532.386 130 510 107.614 510 80C510 52.3858 532.386 30 560 30Z" fill="#031329"/>
<path fill-rule="evenodd" clip-rule="evenodd" d="M620 80C620 46.8629 593.137 20 560 20C526.863 20 500 46.8629 500 80C500 113.137 526.863 140 560 140C593.137 140 620 113.137 620 80ZM560 -3.49691e-06C604.183 -1.56562e-06 640 35.8172 640 80C640 124.183 604.183 160 560 160C515.817 160 480 124.183 480 80C480 35.8172 515.817 -5.4282e-06 560 -3.49691e-06Z" fill="#031329"/>
</g>
<g clip-path="url(#clip3_4923_13006)">
<path fill-rule="evenodd" clip-rule="evenodd" d="M720 130C703.431 130 690 143.431 690 160C690 176.569 703.431 190 720 190C736.569 190 750 176.569 750 160C750 143.431 736.569 130 720 130ZM670 160C670 132.386 692.386 110 720 110C747.614 110 770 132.386 770 160C770 187.614 747.614 210 720 210C692.386 210 670 187.614 670 160Z" fill="#031329"/>
<path fill-rule="evenodd" clip-rule="evenodd" d="M720 100C686.863 100 660 126.863 660 160C660 193.137 686.863 220 720 220C753.137 220 780 193.137 780 160C780 126.863 753.137 100 720 100ZM640 160C640 115.817 675.817 80 720 80C764.183 80 800 115.817 800 160C800 204.183 764.183 240 720 240C675.817 240 640 204.183 640 160Z" fill="#031329"/>
</g>
<g clip-path="url(#clip4_4923_13006)">
<path fill-rule="evenodd" clip-rule="evenodd" d="M640 130C623.431 130 610 143.431 610 160C610 176.569 623.431 190 640 190C656.569 190 670 176.569 670 160C670 143.431 656.569 130 640 130ZM590 160C590 132.386 612.386 110 640 110C667.614 110 690 132.386 690 160C690 187.614 667.614 210 640 210C612.386 210 590 187.614 590 160Z" fill="#031329"/>
<path fill-rule="evenodd" clip-rule="evenodd" d="M640 100C606.863 100 580 126.863 580 160C580 193.137 606.863 220 640 220C673.137 220 700 193.137 700 160C700 126.863 673.137 100 640 100ZM560 160C560 115.817 595.817 80 640 80C684.183 80 720 115.817 720 160C720 204.183 684.183 240 640 240C595.817 240 560 204.183 560 160Z" fill="#031329"/>
</g>
<g clip-path="url(#clip5_4923_13006)">
<path fill-rule="evenodd" clip-rule="evenodd" d="M560 50C543.431 50 530 63.4315 530 80C530 96.5685 543.431 110 560 110C576.569 110 590 96.5685 590 80C590 63.4315 576.569 50 560 50ZM510 80C510 52.3858 532.386 30 560 30C587.614 30 610 52.3858 610 80C610 107.614 587.614 130 560 130C532.386 130 510 107.614 510 80Z" fill="#031329"/>
<path fill-rule="evenodd" clip-rule="evenodd" d="M560 20C526.863 20 500 46.8629 500 80C500 113.137 526.863 140 560 140C593.137 140 620 113.137 620 80C620 46.8629 593.137 20 560 20ZM480 80C480 35.8172 515.817 0 560 0C604.183 0 640 35.8172 640 80C640 124.183 604.183 160 560 160C515.817 160 480 124.183 480 80Z" fill="#031329"/>
</g>
<g clip-path="url(#clip6_4923_13006)">
<path fill-rule="evenodd" clip-rule="evenodd" d="M320 370C303.431 370 290 383.431 290 400C290 416.569 303.431 430 320 430C336.569 430 350 416.569 350 400C350 383.431 336.569 370 320 370ZM270 400C270 372.386 292.386 350 320 350C347.614 350 370 372.386 370 400C370 427.614 347.614 450 320 450C292.386 450 270 427.614 270 400Z" fill="#031329"/>
<path fill-rule="evenodd" clip-rule="evenodd" d="M320 340C286.863 340 260 366.863 260 400C260 433.137 286.863 460 320 460C353.137 460 380 433.137 380 400C380 366.863 353.137 340 320 340ZM240 400C240 355.817 275.817 320 320 320C364.183 320 400 355.817 400 400C400 444.183 364.183 480 320 480C275.817 480 240 444.183 240 400Z" fill="#031329"/>
</g>
<g clip-path="url(#clip7_4923_13006)">
<path fill-rule="evenodd" clip-rule="evenodd" d="M160 370C143.431 370 130 383.431 130 400C130 416.569 143.431 430 160 430C176.569 430 190 416.569 190 400C190 383.431 176.569 370 160 370ZM110 400C110 372.386 132.386 350 160 350C187.614 350 210 372.386 210 400C210 427.614 187.614 450 160 450C132.386 450 110 427.614 110 400Z" fill="#031329"/>
<path fill-rule="evenodd" clip-rule="evenodd" d="M160 340C126.863 340 100 366.863 100 400C100 433.137 126.863 460 160 460C193.137 460 220 433.137 220 400C220 366.863 193.137 340 160 340ZM80 400C80 355.817 115.817 320 160 320C204.183 320 240 355.817 240 400C240 444.183 204.183 480 160 480C115.817 480 80 444.183 80 400Z" fill="#031329"/>
</g>
<g clip-path="url(#clip8_4923_13006)">
<path fill-rule="evenodd" clip-rule="evenodd" d="M240 290C223.431 290 210 303.431 210 320C210 336.569 223.431 350 240 350C256.569 350 270 336.569 270 320C270 303.431 256.569 290 240 290ZM190 320C190 292.386 212.386 270 240 270C267.614 270 290 292.386 290 320C290 347.614 267.614 370 240 370C212.386 370 190 347.614 190 320Z" fill="#031329"/>
<path fill-rule="evenodd" clip-rule="evenodd" d="M240 260C206.863 260 180 286.863 180 320C180 353.137 206.863 380 240 380C273.137 380 300 353.137 300 320C300 286.863 273.137 260 240 260ZM160 320C160 275.817 195.817 240 240 240C284.183 240 320 275.817 320 320C320 364.183 284.183 400 240 400C195.817 400 160 364.183 160 320Z" fill="#031329"/>
</g>
<g clip-path="url(#clip9_4923_13006)">
<path fill-rule="evenodd" clip-rule="evenodd" d="M80 370C63.4315 370 50 383.431 50 400C50 416.569 63.4315 430 80 430C96.5685 430 110 416.569 110 400C110 383.431 96.5685 370 80 370ZM30 400C30 372.386 52.3858 350 80 350C107.614 350 130 372.386 130 400C130 427.614 107.614 450 80 450C52.3858 450 30 427.614 30 400Z" fill="#031329"/>
<path fill-rule="evenodd" clip-rule="evenodd" d="M80 340C46.8629 340 20 366.863 20 400C20 433.137 46.8629 460 80 460C113.137 460 140 433.137 140 400C140 366.863 113.137 340 80 340ZM0 400C0 355.817 35.8172 320 80 320C124.183 320 160 355.817 160 400C160 444.183 124.183 480 80 480C35.8172 480 0 444.183 0 400Z" fill="#031329"/>
</g>
<g clip-path="url(#clip10_4923_13006)">
<path fill-rule="evenodd" clip-rule="evenodd" d="M0 370C-16.5685 370 -30 383.431 -30 400C-30 416.569 -16.5685 430 0 430C16.5685 430 30 416.569 30 400C30 383.431 16.5685 370 0 370ZM-50 400C-50 372.386 -27.6142 350 0 350C27.6142 350 50 372.386 50 400C50 427.614 27.6142 450 0 450C-27.6142 450 -50 427.614 -50 400Z" fill="#031329"/>
<path fill-rule="evenodd" clip-rule="evenodd" d="M0 340C-33.1371 340 -60 366.863 -60 400C-60 433.137 -33.1371 460 0 460C33.1371 460 60 433.137 60 400C60 366.863 33.1371 340 0 340ZM-80 400C-80 355.817 -44.1828 320 0 320C44.1828 320 80 355.817 80 400C80 444.183 44.1828 480 0 480C-44.1828 480 -80 444.183 -80 400Z" fill="#031329"/>
</g>
<g clip-path="url(#clip11_4923_13006)">
<path fill-rule="evenodd" clip-rule="evenodd" d="M320 290C303.431 290 290 303.431 290 320C290 336.569 303.431 350 320 350C336.569 350 350 336.569 350 320C350 303.431 336.569 290 320 290ZM270 320C270 292.386 292.386 270 320 270C347.614 270 370 292.386 370 320C370 347.614 347.614 370 320 370C292.386 370 270 347.614 270 320Z" fill="#031329"/>
<path fill-rule="evenodd" clip-rule="evenodd" d="M320 260C286.863 260 260 286.863 260 320C260 353.137 286.863 380 320 380C353.137 380 380 353.137 380 320C380 286.863 353.137 260 320 260ZM240 320C240 275.817 275.817 240 320 240C364.183 240 400 275.817 400 320C400 364.183 364.183 400 320 400C275.817 400 240 364.183 240 320Z" fill="#031329"/>
</g>
<g clip-path="url(#clip12_4923_13006)">
<path fill-rule="evenodd" clip-rule="evenodd" d="M480 210C463.431 210 450 223.431 450 240C450 256.569 463.431 270 480 270C496.569 270 510 256.569 510 240C510 223.431 496.569 210 480 210ZM430 240C430 212.386 452.386 190 480 190C507.614 190 530 212.386 530 240C530 267.614 507.614 290 480 290C452.386 290 430 267.614 430 240Z" fill="#031329"/>
<path fill-rule="evenodd" clip-rule="evenodd" d="M480 180C446.863 180 420 206.863 420 240C420 273.137 446.863 300 480 300C513.137 300 540 273.137 540 240C540 206.863 513.137 180 480 180ZM400 240C400 195.817 435.817 160 480 160C524.183 160 560 195.817 560 240C560 284.183 524.183 320 480 320C435.817 320 400 284.183 400 240Z" fill="#031329"/>
</g>
<g clip-path="url(#clip13_4923_13006)">
<path fill-rule="evenodd" clip-rule="evenodd" d="M400 210C383.431 210 370 223.431 370 240C370 256.569 383.431 270 400 270C416.569 270 430 256.569 430 240C430 223.431 416.569 210 400 210ZM350 240C350 212.386 372.386 190 400 190C427.614 190 450 212.386 450 240C450 267.614 427.614 290 400 290C372.386 290 350 267.614 350 240Z" fill="#031329"/>
<path fill-rule="evenodd" clip-rule="evenodd" d="M400 180C366.863 180 340 206.863 340 240C340 273.137 366.863 300 400 300C433.137 300 460 273.137 460 240C460 206.863 433.137 180 400 180ZM320 240C320 195.817 355.817 160 400 160C444.183 160 480 195.817 480 240C480 284.183 444.183 320 400 320C355.817 320 320 284.183 320 240Z" fill="#031329"/>
</g>
<g clip-path="url(#clip14_4923_13006)">
<path fill-rule="evenodd" clip-rule="evenodd" d="M670 320C670 303.431 656.569 290 640 290C623.431 290 610 303.431 610 320C610 336.569 623.431 350 640 350C656.569 350 670 336.569 670 320ZM640 270C667.614 270 690 292.386 690 320C690 347.614 667.614 370 640 370C612.386 370 590 347.614 590 320C590 292.386 612.386 270 640 270Z" fill="#031329"/>
<path fill-rule="evenodd" clip-rule="evenodd" d="M700 320C700 286.863 673.137 260 640 260C606.863 260 580 286.863 580 320C580 353.137 606.863 380 640 380C673.137 380 700 353.137 700 320ZM640 240C684.183 240 720 275.817 720 320C720 364.183 684.183 400 640 400C595.817 400 560 364.183 560 320C560 275.817 595.817 240 640 240Z" fill="#031329"/>
</g>
<g clip-path="url(#clip15_4923_13006)">
<path fill-rule="evenodd" clip-rule="evenodd" d="M510 240C510 223.431 496.569 210 480 210C463.431 210 450 223.431 450 240C450 256.569 463.431 270 480 270C496.569 270 510 256.569 510 240ZM480 190C507.614 190 530 212.386 530 240C530 267.614 507.614 290 480 290C452.386 290 430 267.614 430 240C430 212.386 452.386 190 480 190Z" fill="#031329"/>
<path fill-rule="evenodd" clip-rule="evenodd" d="M540 240C540 206.863 513.137 180 480 180C446.863 180 420 206.863 420 240C420 273.137 446.863 300 480 300C513.137 300 540 273.137 540 240ZM480 160C524.183 160 560 195.817 560 240C560 284.183 524.183 320 480 320C435.817 320 400 284.183 400 240C400 195.817 435.817 160 480 160Z" fill="#031329"/>
</g>
<g clip-path="url(#clip16_4923_13006)">
<path fill-rule="evenodd" clip-rule="evenodd" d="M750 160C750 143.431 736.569 130 720 130C703.431 130 690 143.431 690 160C690 176.569 703.431 190 720 190C736.569 190 750 176.569 750 160ZM720 110C747.614 110 770 132.386 770 160C770 187.614 747.614 210 720 210C692.386 210 670 187.614 670 160C670 132.386 692.386 110 720 110Z" fill="#031329"/>
<path fill-rule="evenodd" clip-rule="evenodd" d="M780 160C780 126.863 753.137 100 720 100C686.863 100 660 126.863 660 160C660 193.137 686.863 220 720 220C753.137 220 780 193.137 780 160ZM720 80C764.183 80 800 115.817 800 160C800 204.183 764.183 240 720 240C675.817 240 640 204.183 640 160C640 115.817 675.817 80 720 80Z" fill="#031329"/>
</g>
<g clip-path="url(#clip17_4923_13006)">
<path fill-rule="evenodd" clip-rule="evenodd" d="M640 270C656.569 270 670 256.569 670 240C670 223.431 656.569 210 640 210C623.431 210 610 223.431 610 240C610 256.569 623.431 270 640 270ZM690 240C690 267.614 667.614 290 640 290C612.386 290 590 267.614 590 240C590 212.386 612.386 190 640 190C667.614 190 690 212.386 690 240Z" fill="#031329"/>
<path fill-rule="evenodd" clip-rule="evenodd" d="M640 300C673.137 300 700 273.137 700 240C700 206.863 673.137 180 640 180C606.863 180 580 206.863 580 240C580 273.137 606.863 300 640 300ZM720 240C720 284.183 684.183 320 640 320C595.817 320 560 284.183 560 240C560 195.817 595.817 160 640 160C684.183 160 720 195.817 720 240Z" fill="#031329"/>
</g>
<g clip-path="url(#clip18_4923_13006)">
<path fill-rule="evenodd" clip-rule="evenodd" d="M640 190C656.569 190 670 176.569 670 160C670 143.431 656.569 130 640 130C623.431 130 610 143.431 610 160C610 176.569 623.431 190 640 190ZM690 160C690 187.614 667.614 210 640 210C612.386 210 590 187.614 590 160C590 132.386 612.386 110 640 110C667.614 110 690 132.386 690 160Z" fill="#031329"/>
<path fill-rule="evenodd" clip-rule="evenodd" d="M640 220C673.137 220 700 193.137 700 160C700 126.863 673.137 100 640 100C606.863 100 580 126.863 580 160C580 193.137 606.863 220 640 220ZM720 160C720 204.183 684.183 240 640 240C595.817 240 560 204.183 560 160C560 115.817 595.817 80 640 80C684.183 80 720 115.817 720 160Z" fill="#031329"/>
</g>
<g clip-path="url(#clip19_4923_13006)">
<path fill-rule="evenodd" clip-rule="evenodd" d="M480 130C463.431 130 450 143.431 450 160C450 176.569 463.431 190 480 190C496.569 190 510 176.569 510 160C510 143.431 496.569 130 480 130ZM430 160C430 132.386 452.386 110 480 110C507.614 110 530 132.386 530 160C530 187.614 507.614 210 480 210C452.386 210 430 187.614 430 160Z" fill="#031329"/>
<path fill-rule="evenodd" clip-rule="evenodd" d="M480 100C446.863 100 420 126.863 420 160C420 193.137 446.863 220 480 220C513.137 220 540 193.137 540 160C540 126.863 513.137 100 480 100ZM400 160C400 115.817 435.817 80 480 80C524.183 80 560 115.817 560 160C560 204.183 524.183 240 480 240C435.817 240 400 204.183 400 160Z" fill="#031329"/>
</g>
<g clip-path="url(#clip20_4923_13006)">
<path fill-rule="evenodd" clip-rule="evenodd" d="M480 350C496.569 350 510 336.569 510 320C510 303.431 496.569 290 480 290C463.431 290 450 303.431 450 320C450 336.569 463.431 350 480 350ZM530 320C530 347.614 507.614 370 480 370C452.386 370 430 347.614 430 320C430 292.386 452.386 270 480 270C507.614 270 530 292.386 530 320Z" fill="#031329"/>
<path fill-rule="evenodd" clip-rule="evenodd" d="M480 380C513.137 380 540 353.137 540 320C540 286.863 513.137 260 480 260C446.863 260 420 286.863 420 320C420 353.137 446.863 380 480 380ZM560 320C560 364.183 524.183 400 480 400C435.817 400 400 364.183 400 320C400 275.817 435.817 240 480 240C524.183 240 560 275.817 560 320Z" fill="#031329"/>
</g>
<g clip-path="url(#clip21_4923_13006)">
<path fill-rule="evenodd" clip-rule="evenodd" d="M800 350C816.569 350 830 336.569 830 320C830 303.431 816.569 290 800 290C783.431 290 770 303.431 770 320C770 336.569 783.431 350 800 350ZM850 320C850 347.614 827.614 370 800 370C772.386 370 750 347.614 750 320C750 292.386 772.386 270 800 270C827.614 270 850 292.386 850 320Z" fill="#031329"/>
<path fill-rule="evenodd" clip-rule="evenodd" d="M800 380C833.137 380 860 353.137 860 320C860 286.863 833.137 260 800 260C766.863 260 740 286.863 740 320C740 353.137 766.863 380 800 380ZM880 320C880 364.183 844.183 400 800 400C755.817 400 720 364.183 720 320C720 275.817 755.817 240 800 240C844.183 240 880 275.817 880 320Z" fill="#031329"/>
</g>
<g clip-path="url(#clip22_4923_13006)">
<path fill-rule="evenodd" clip-rule="evenodd" d="M320 350C336.569 350 350 336.569 350 320C350 303.431 336.569 290 320 290C303.431 290 290 303.431 290 320C290 336.569 303.431 350 320 350ZM370 320C370 347.614 347.614 370 320 370C292.386 370 270 347.614 270 320C270 292.386 292.386 270 320 270C347.614 270 370 292.386 370 320Z" fill="#031329"/>
<path fill-rule="evenodd" clip-rule="evenodd" d="M320 380C353.137 380 380 353.137 380 320C380 286.863 353.137 260 320 260C286.863 260 260 286.863 260 320C260 353.137 286.863 380 320 380ZM400 320C400 364.183 364.183 400 320 400C275.817 400 240 364.183 240 320C240 275.817 275.817 240 320 240C364.183 240 400 275.817 400 320Z" fill="#031329"/>
</g>
<g clip-path="url(#clip23_4923_13006)">
<path fill-rule="evenodd" clip-rule="evenodd" d="M640 350C656.569 350 670 336.569 670 320C670 303.431 656.569 290 640 290C623.431 290 610 303.431 610 320C610 336.569 623.431 350 640 350ZM690 320C690 347.614 667.614 370 640 370C612.386 370 590 347.614 590 320C590 292.386 612.386 270 640 270C667.614 270 690 292.386 690 320Z" fill="#031329"/>
<path fill-rule="evenodd" clip-rule="evenodd" d="M640 380C673.137 380 700 353.137 700 320C700 286.863 673.137 260 640 260C606.863 260 580 286.863 580 320C580 353.137 606.863 380 640 380ZM720 320C720 364.183 684.183 400 640 400C595.817 400 560 364.183 560 320C560 275.817 595.817 240 640 240C684.183 240 720 275.817 720 320Z" fill="#031329"/>
</g>
<g clip-path="url(#clip24_4923_13006)">
<path fill-rule="evenodd" clip-rule="evenodd" d="M480 270C496.569 270 510 256.569 510 240C510 223.431 496.569 210 480 210C463.431 210 450 223.431 450 240C450 256.569 463.431 270 480 270ZM530 240C530 267.614 507.614 290 480 290C452.386 290 430 267.614 430 240C430 212.386 452.386 190 480 190C507.614 190 530 212.386 530 240Z" fill="#031329"/>
<path fill-rule="evenodd" clip-rule="evenodd" d="M480 300C513.137 300 540 273.137 540 240C540 206.863 513.137 180 480 180C446.863 180 420 206.863 420 240C420 273.137 446.863 300 480 300ZM560 240C560 284.183 524.183 320 480 320C435.817 320 400 284.183 400 240C400 195.817 435.817 160 480 160C524.183 160 560 195.817 560 240Z" fill="#031329"/>
</g>
<g clip-path="url(#clip25_4923_13006)">
<path fill-rule="evenodd" clip-rule="evenodd" d="M720 190C736.569 190 750 176.569 750 160C750 143.431 736.569 130 720 130C703.431 130 690 143.431 690 160C690 176.569 703.431 190 720 190ZM770 160C770 187.614 747.614 210 720 210C692.386 210 670 187.614 670 160C670 132.386 692.386 110 720 110C747.614 110 770 132.386 770 160Z" fill="#031329"/>
<path fill-rule="evenodd" clip-rule="evenodd" d="M720 220C753.137 220 780 193.137 780 160C780 126.863 753.137 100 720 100C686.863 100 660 126.863 660 160C660 193.137 686.863 220 720 220ZM800 160C800 204.183 764.183 240 720 240C675.817 240 640 204.183 640 160C640 115.817 675.817 80 720 80C764.183 80 800 115.817 800 160Z" fill="#031329"/>
</g>
<g clip-path="url(#clip26_4923_13006)">
<path fill-rule="evenodd" clip-rule="evenodd" d="M720 290C703.431 290 690 303.431 690 320C690 336.569 703.431 350 720 350C736.569 350 750 336.569 750 320C750 303.431 736.569 290 720 290ZM670 320C670 292.386 692.386 270 720 270C747.614 270 770 292.386 770 320C770 347.614 747.614 370 720 370C692.386 370 670 347.614 670 320Z" fill="#031329"/>
<path fill-rule="evenodd" clip-rule="evenodd" d="M720 260C686.863 260 660 286.863 660 320C660 353.137 686.863 380 720 380C753.137 380 780 353.137 780 320C780 286.863 753.137 260 720 260ZM640 320C640 275.817 675.817 240 720 240C764.183 240 800 275.817 800 320C800 364.183 764.183 400 720 400C675.817 400 640 364.183 640 320Z" fill="#031329"/>
</g>
<defs>
<clipPath id="clip0_4923_13006">
<rect width="80" height="80" fill="white" transform="translate(640 240)"/>
</clipPath>
<clipPath id="clip1_4923_13006">
<rect width="80" height="80" fill="white" transform="translate(480 320)"/>
</clipPath>
<clipPath id="clip2_4923_13006">
<rect width="80" height="80" fill="white" transform="translate(640 80) rotate(90)"/>
</clipPath>
<clipPath id="clip3_4923_13006">
<rect width="80" height="80" fill="white" transform="translate(720 80)"/>
</clipPath>
<clipPath id="clip4_4923_13006">
<rect width="80" height="80" fill="white" transform="translate(640 80)"/>
</clipPath>
<clipPath id="clip5_4923_13006">
<rect width="80" height="80" fill="white" transform="translate(560)"/>
</clipPath>
<clipPath id="clip6_4923_13006">
<rect width="80" height="80" fill="white" transform="translate(320 320)"/>
</clipPath>
<clipPath id="clip7_4923_13006">
<rect width="80" height="80" fill="white" transform="translate(160 320)"/>
</clipPath>
<clipPath id="clip8_4923_13006">
<rect width="80" height="80" fill="white" transform="translate(240 240)"/>
</clipPath>
<clipPath id="clip9_4923_13006">
<rect width="80" height="80" fill="white" transform="translate(80 320)"/>
</clipPath>
<clipPath id="clip10_4923_13006">
<rect width="80" height="80" fill="white" transform="translate(0 320)"/>
</clipPath>
<clipPath id="clip11_4923_13006">
<rect width="80" height="80" fill="white" transform="translate(320 240)"/>
</clipPath>
<clipPath id="clip12_4923_13006">
<rect width="80" height="80" fill="white" transform="translate(480 160)"/>
</clipPath>
<clipPath id="clip13_4923_13006">
<rect width="80" height="80" fill="white" transform="translate(400 160)"/>
</clipPath>
<clipPath id="clip14_4923_13006">
<rect width="80" height="80" fill="white" transform="translate(720 320) rotate(90)"/>
</clipPath>
<clipPath id="clip15_4923_13006">
<rect width="80" height="80" fill="white" transform="translate(560 240) rotate(90)"/>
</clipPath>
<clipPath id="clip16_4923_13006">
<rect width="80" height="80" fill="white" transform="translate(800 160) rotate(90)"/>
</clipPath>
<clipPath id="clip17_4923_13006">
<rect width="80" height="80" fill="white" transform="translate(640 320) rotate(180)"/>
</clipPath>
<clipPath id="clip18_4923_13006">
<rect width="80" height="80" fill="white" transform="translate(640 240) rotate(180)"/>
</clipPath>
<clipPath id="clip19_4923_13006">
<rect width="80" height="80" fill="white" transform="translate(480 80)"/>
</clipPath>
<clipPath id="clip20_4923_13006">
<rect width="80" height="80" fill="white" transform="translate(480 400) rotate(180)"/>
</clipPath>
<clipPath id="clip21_4923_13006">
<rect width="80" height="80" fill="white" transform="translate(800 400) rotate(180)"/>
</clipPath>
<clipPath id="clip22_4923_13006">
<rect width="80" height="80" fill="white" transform="translate(320 400) rotate(180)"/>
</clipPath>
<clipPath id="clip23_4923_13006">
<rect width="80" height="80" fill="white" transform="translate(640 400) rotate(180)"/>
</clipPath>
<clipPath id="clip24_4923_13006">
<rect width="80" height="80" fill="white" transform="translate(480 320) rotate(180)"/>
</clipPath>
<clipPath id="clip25_4923_13006">
<rect width="80" height="80" fill="white" transform="translate(720 240) rotate(180)"/>
</clipPath>
<clipPath id="clip26_4923_13006">
<rect width="80" height="80" fill="white" transform="translate(720 240)"/>
</clipPath>
</defs>
</svg>
